<?xml version="1.0" encoding="iso-8859-1"?>
<!-- Generator: Adobe Illustrator 16.0.0, SVG Export Plug-In . SVG Version: 6.00 Build 0)  -->
<!DOCTYPE svg PUBLIC "-//W3C//DTD SVG 1.1//EN" "http://www.w3.org/Graphics/SVG/1.1/DTD/svg11.dtd">
<svg version="1.1" id="Capa_1" xmlns="http://www.w3.org/2000/svg" xmlns:xlink="http://www.w3.org/1999/xlink" x="0px" y="0px"
	 width="791.984px" height="791.985px" viewBox="0 0 791.984 791.985" style="enable-background:new 0 0 791.984 791.985;"
	 xml:space="preserve">
<g>
	<g>
		<path d="M542.008,172.005c7.155-2.063,12.838-6.433,17.302-12.275c8.056-10.56,7.024-26.098,1.97-37.633
			c-5.271-11.994-15.773-20.5-28.931-21.709c-14.413-1.332-26.623,8.252-36.094,18.896c-5.496-9.706-13.626-17.658-25.742-17.714
			c-13.429-0.066-24.682,10.728-30.853,21.69c-6.396,11.356-8.637,25.76-1.922,37.473c7.727,13.466,23.669,15.445,37.285,11.487
			c-2.494,62.324,6.33,125.52,11.084,187.582c5.439,70.97,8.394,142.391,1.135,213.333c-5.907,57.794-27.204,119.143-84.914,142.999
			c-61.349,25.367-127.03-5.092-151.843-62.914c16.139-10.729,31.349-26.454,27.129-47.282
			c-3.441-16.974-20.781-27.945-35.992-32.991c-16.739-5.551-36.029-4.444-50.133,6.715c-12.481,9.884-14.686,25.816-12.847,41.205
			c-10.372-6.357-22.104-9.49-33.994-3.854c-14.432,6.846-19.29,25.807-19.553,40.314c-0.3,16.373,6.114,33.769,19.909,43.277
			c16.692,11.516,38.045,2.457,52.674-8.806c-14.142,47.339,69.995,80.367,103.135,90.691
			c68.213,21.26,140.487,7.193,190.188-46.035c62.399-66.825,69.254-171.16,70.68-257.52c1.622-98.418-7.062-209.516-35.86-304.934
			C531.336,174.472,537.376,173.346,542.008,172.005z"/>
		<path d="M648.295,76.484c8.43-4.201,15.248-10.784,16.945-20.94c2.551-15.239-6.696-29.755-17.434-39.677
			c-11.3-10.456-27.12-17.667-42.715-15.473c-19.815,2.785-30.938,19.712-36.104,37.632c-0.056,0.188-0.009,0.329-0.047,0.516
			c-60.739-9.847-125.389,4.867-186.54,7.596c7.033-43.062-68.832-57.11-84.671-15.857c-11.225,29.239,16.336,54.25,44.375,59.97
			c-8.759,8.112-15.558,18.108-14.001,29.84c1.979,14.967,16.486,23.116,30.056,25.826c14.479,2.888,30.543,0.216,41.626-9.968
			c10.287-9.443,12.294-28.33,6.471-41.674c53.368-11.441,107.037-11.225,161.024,1.332c-0.085,0.488-0.254,0.9-0.234,1.454
			c0.524,20.228,7.567,44.272,27.617,53.209c15.923,7.099,34.247,2.175,48.154-7.137c12.781-8.562,23.706-22.328,24.072-38.261
			C667.19,91.761,658.798,82.626,648.295,76.484z"/>
	</g>
</g>
<g>
</g>
<g>
</g>
<g>
</g>
<g>
</g>
<g>
</g>
<g>
</g>
<g>
</g>
<g>
</g>
<g>
</g>
<g>
</g>
<g>
</g>
<g>
</g>
<g>
</g>
<g>
</g>
<g>
</g>
</svg>
